# Blender v2.91.0 OBJ File: ''
# www.blender.org
mtllib ChollaCactus_Cluster.mtl
o LOD0SG
v -0.649318 -0.100000 0.420097
v -0.645745 2.938670 0.302226
v 0.266082 -0.100000 0.170037
v 0.291153 2.801480 0.239858
v -0.605667 3.113770 0.252816
v 0.313323 2.877610 0.239773
v -0.502754 3.535300 0.144808
v 0.429621 3.358830 0.149567
v -0.474318 3.724850 0.104279
v 0.466445 3.600850 0.113180
v -0.453681 3.859000 0.076184
v 0.495149 3.865620 0.089115
v -0.460095 3.887450 0.063612
v 0.475371 4.033790 0.126673
v -0.525939 4.252210 0.092005
v 0.407198 4.399180 0.182255
v -0.553747 4.462900 0.110505
v 0.388843 4.525020 0.200804
v -0.559435 4.593520 0.133154
v 0.385986 4.567190 0.210450
v -0.553143 4.698280 0.167737
v 0.390791 4.619320 0.224669
v -0.542390 4.857750 0.204081
v 0.400737 4.777690 0.271836
v -0.528102 5.044250 0.238602
v 0.415902 5.048580 0.335170
v -0.533381 5.076380 0.241709
v 0.405366 5.166840 0.346872
v -0.555103 5.300930 0.248502
v 0.384171 5.370040 0.364595
v 0.079217 2.593230 0.175509
v 0.527101 3.444580 0.048430
v -0.434969 2.906570 0.368518
v -0.042125 3.690030 0.173170
v 0.622899 3.735370 0.023045
v 0.030893 3.913210 0.131949
v 0.641105 3.822510 0.022042
v 0.069794 4.045120 0.119469
v 0.726923 4.078590 0.064516
v 0.125943 4.162790 0.094422
v 0.738344 4.922050 0.114654
v 0.190723 4.947780 0.076812
v -0.036005 1.249460 0.228137
v 0.741659 1.607790 -0.014641
v -0.330622 1.994880 0.334135
v 0.341167 2.308060 0.039393
v 0.950805 1.763090 -0.087352
v 0.421259 2.368150 -0.002651
v 1.110200 1.941970 -0.095697
v 0.469811 2.425250 0.004479
v 1.215710 2.108750 -0.073680
v 0.516664 2.495870 0.003360
v 1.288530 2.269130 -0.053936
v 0.552105 2.560860 0.002172
v 1.335590 2.426630 -0.036888
v 0.576963 2.626260 0.000581
v 1.373840 2.687210 -0.009827
v 0.610615 2.780160 -0.000757
v 1.360390 3.536370 0.050367
v 0.661157 3.529540 -0.018574
v -0.164386 1.269400 0.125042
v 0.007448 1.572510 -0.610341
v -0.202061 2.012280 0.436929
v -0.120202 2.325750 -0.351667
v 0.116740 1.666260 -0.796429
v -0.072000 2.380050 -0.471681
v 0.211614 1.781500 -0.948947
v -0.037656 2.437360 -0.551091
v 0.327611 1.975300 -1.161610
v 0.027175 2.560050 -0.719786
v 0.387581 2.132940 -1.277610
v 0.030993 2.578450 -0.740918
v 0.423098 2.272060 -1.342130
v 0.038040 2.628860 -0.772063
v 0.422163 2.377440 -1.399660
v 0.049277 2.697000 -0.810389
v 0.420166 2.626180 -1.492419
v 0.042550 2.792360 -0.863822
v 0.418942 2.836550 -1.521630
v 0.035911 2.919710 -0.896646
v 0.405511 3.296910 -1.552529
v 0.014659 3.317940 -0.971008
v -0.394791 0.498303 0.289989
v -1.176170 0.983728 0.117537
v 0.020780 1.214940 0.284669
v -0.620170 1.586200 0.236641
v -1.341970 1.239380 0.041531
v -0.643872 1.645840 0.225238
v -1.453660 1.526070 -0.057596
v -0.759261 1.894420 0.184988
v -1.534990 1.820120 -0.156104
v -0.822403 2.040380 0.146101
v -1.562820 2.091520 -0.199504
v -0.854578 2.181430 0.133818
v -1.514020 2.934120 -0.212681
v -0.900300 2.934900 0.163756
v -0.198710 3.156690 0.033721
v -0.579294 3.764020 -0.351022
v 0.074484 3.527030 0.306853
v -0.269947 4.035480 -0.008971
v -0.601757 3.966370 -0.439626
v -0.284260 4.148300 -0.049135
v -0.613581 4.250210 -0.536627
v -0.311003 4.381300 -0.119791
v -0.613037 4.589310 -0.607345
v -0.337391 4.664420 -0.179648
v -0.576696 5.432610 -0.660357
v -0.374270 5.446110 -0.241853
v -0.452263 1.664760 0.319970
v -1.202860 2.500450 0.379536
v 0.088660 2.206920 0.237228
v -0.540215 2.893230 0.382378
v -1.297880 2.694250 0.385298
v -0.585487 2.987080 0.396847
v -1.354100 2.871510 0.386956
v -0.618211 3.078560 0.408046
v -1.402010 3.157500 0.383954
v -0.663488 3.269800 0.424711
v -1.427680 3.595330 0.340864
v -0.715143 3.628020 0.422994
v -1.426820 3.828240 0.338230
v -0.739597 3.901150 0.437832
v -1.440200 4.213510 0.349258
v -0.781971 4.227900 0.470510
v 0.085194 3.264890 0.403601
v -0.000386 5.509030 0.456064
v -0.245615 3.269780 -0.030298
v -0.148612 5.514550 0.005655
v -0.006574 1.217720 0.543798
v -0.114127 1.992900 1.333050
v -0.361422 1.742820 0.020770
v -0.361053 2.479070 0.718338
v -0.144665 2.291340 1.552790
v -0.373280 2.671770 0.868276
v -0.213709 2.421530 1.628500
v -0.404311 2.745980 0.914647
v -0.432958 2.868910 1.835521
v -0.509213 3.021720 1.081190
v -0.478928 3.021530 1.844640
v -0.486410 3.054340 1.079410
v -0.608092 3.678330 1.822731
v -0.553475 3.634630 1.112041
v -0.182369 3.882060 0.206278
v -0.173424 4.573510 0.507302
v 0.205576 3.979650 -0.023558
v 0.239516 4.598700 0.303110
v 0.195797 4.482090 0.438944
v 0.725884 5.412550 0.814104
v -0.129706 4.690130 0.371468
v 0.469541 5.601170 0.692193
v 0.129214 4.645120 0.565566
v 0.099462 5.875350 0.093129
v -0.063122 4.527100 0.244846
v -0.000609 5.763020 -0.212681
vt 1.000000 0.000000
vt 1.000000 0.539431
vt 0.000000 0.000000
vt 0.000000 0.539431
vt 1.000000 0.563356
vt 0.000000 0.563356
vt 1.000000 0.649615
vt 0.000000 0.649615
vt 1.000000 0.689866
vt 0.000000 0.689866
vt 1.000000 0.726669
vt 0.000000 0.726669
vt 1.000000 0.744821
vt 0.000000 0.744821
vt 1.000000 0.812677
vt 0.000000 0.812677
vt 1.000000 0.843715
vt 0.000000 0.843715
vt 1.000000 0.859693
vt 0.000000 0.859693
vt 1.000000 0.874644
vt 0.000000 0.874644
vt 1.000000 0.904546
vt 0.000000 0.904546
vt 1.000000 0.947102
vt 0.000000 0.947102
vt 1.000000 0.960897
vt 0.000000 0.960897
vt 1.000000 1.000000
vt 0.000000 1.000000
vt 1.000000 0.000000
vt 1.000000 0.399482
vt 0.000000 0.000000
vt 0.000000 0.399482
vt 1.000000 0.516124
vt 0.000000 0.516124
vt 1.000000 0.564641
vt 0.000000 0.564641
vt 1.000000 0.651068
vt 0.000000 0.651068
vt 1.000000 1.000000
vt 0.000000 1.000000
vt 1.000000 0.000000
vt 1.000000 0.326048
vt 0.000000 0.000000
vt 0.000000 0.326048
vt 1.000000 0.399243
vt 0.000000 0.399243
vt 1.000000 0.460073
vt 0.000000 0.460073
vt 1.000000 0.514779
vt 0.000000 0.514779
vt 1.000000 0.563268
vt 0.000000 0.563268
vt 1.000000 0.608665
vt 0.000000 0.608665
vt 1.000000 0.690228
vt 0.000000 0.690228
vt 1.000000 1.000000
vt 0.000000 1.000000
vt 1.000000 0.000000
vt 1.000000 0.325704
vt 0.000000 0.000000
vt 0.000000 0.325704
vt 1.000000 0.398906
vt 0.000000 0.398906
vt 1.000000 0.460762
vt 0.000000 0.460762
vt 1.000000 0.563852
vt 0.000000 0.563852
vt 1.000000 0.609191
vt 0.000000 0.609191
vt 1.000000 0.651488
vt 0.000000 0.651488
vt 1.000000 0.690267
vt 0.000000 0.690267
vt 1.000000 0.763532
vt 0.000000 0.763532
vt 1.000000 0.830672
vt 0.000000 0.830672
vt 1.000000 1.000000
vt 0.000000 1.000000
vt 1.000000 0.000000
vt 1.000000 0.325036
vt 0.000000 0.000000
vt 0.000000 0.325036
vt 1.000000 0.398352
vt 0.000000 0.398352
vt 1.000000 0.514442
vt 0.000000 0.514442
vt 1.000000 0.608397
vt 0.000000 0.608397
vt 1.000000 0.690015
vt 0.000000 0.690015
vt 1.000000 1.000000
vt 0.000000 1.000000
vt 1.000000 0.000000
vt 1.000000 0.323113
vt 0.000000 0.000000
vt 0.000000 0.323113
vt 1.000000 0.396595
vt 0.000000 0.396595
vt 1.000000 0.513539
vt 0.000000 0.513539
vt 1.000000 0.650157
vt 0.000000 0.650157
vt 1.000000 1.000000
vt 0.000000 1.000000
vt 1.000000 0.000000
vt 1.000000 0.398953
vt 0.000000 0.000000
vt 0.000000 0.398953
vt 1.000000 0.460802
vt 0.000000 0.460802
vt 1.000000 0.515453
vt 0.000000 0.515453
vt 1.000000 0.609322
vt 0.000000 0.609322
vt 1.000000 0.763949
vt 0.000000 0.763949
vt 1.000000 0.861767
vt 0.000000 0.861767
vt 1.000000 1.000000
vt 0.000000 1.000000
vt 1.000000 0.000000
vt 1.000000 1.000000
vt 0.000000 0.000000
vt 0.000000 1.000000
vt 1.000000 0.000000
vt 1.000000 0.399346
vt 0.000000 0.000000
vt 0.000000 0.399346
vt 1.000000 0.515267
vt 0.000000 0.515267
vt 1.000000 0.563787
vt 0.000000 0.563787
vt 1.000000 0.728543
vt 0.000000 0.728543
vt 1.000000 0.763644
vt 0.000000 0.763644
vt 1.000000 1.000000
vt 0.000000 1.000000
vt 1.000000 0.000000
vt 1.000000 0.343583
vt 0.000000 0.000000
vt 0.000000 0.343583
vt 1.000000 0.390449
vt 1.000000 1.000000
vt 0.000000 0.390449
vt 0.000000 1.000000
vt 1.000000 0.355474
vt 1.000000 1.000000
vt 0.000000 0.355474
vt 0.000000 1.000000
vn -0.8172 0.4870 -0.3083
vn -0.6726 0.5038 -0.5420
vn 0.5535 0.5116 -0.6572
vn 0.7473 0.4683 -0.4714
vn -0.6052 0.5194 -0.6033
vn 0.7816 0.2323 -0.5789
vn -0.6202 0.5087 -0.5972
vn 0.7712 0.2577 -0.5821
vn -0.6436 0.4850 -0.5920
vn 0.7636 0.3429 -0.5471
vn -0.6994 0.4114 -0.5845
vn 0.7100 0.5066 -0.4891
vn -0.7432 0.3987 -0.5373
vn 0.6349 0.6827 -0.3617
vn -0.7364 0.4304 -0.5220
vn 0.6459 0.6789 -0.3491
vn -0.6959 0.5036 -0.5120
vn 0.6990 0.6423 -0.3144
vn -0.6576 0.6211 -0.4265
vn 0.7514 0.5818 -0.3113
vn -0.6312 0.6665 -0.3967
vn 0.7754 0.5559 -0.2996
vn -0.6252 0.6461 -0.4378
vn 0.7797 0.5479 -0.3031
vn -0.6666 0.5978 -0.4452
vn 0.7429 0.5740 -0.3444
vn -0.6959 0.4524 -0.5578
vn 0.6981 0.6094 -0.3758
vn -0.6768 0.4584 -0.5760
vn 0.7133 0.6056 -0.3528
vn 0.9859 0.1593 0.0515
vn 0.9425 0.2626 0.2065
vn -0.1662 0.8796 0.4457
vn -0.3290 0.8781 0.3474
vn 0.9018 0.3702 0.2228
vn -0.4333 0.8121 0.3909
vn 0.9204 0.2787 0.2742
vn -0.3740 0.8392 0.3948
vn 0.7990 0.4789 0.3637
vn -0.5973 0.7003 0.3910
vn 0.7040 0.5497 0.4497
vn -0.6992 0.6499 0.2980
vn 0.9145 -0.4045 -0.0064
vn 0.9565 -0.2755 0.0962
vn 0.4008 0.9077 0.1244
vn 0.2654 0.9639 0.0220
vn 0.9900 -0.0933 0.1058
vn 0.0667 0.9713 0.2285
vn 0.9732 0.0606 0.2221
vn -0.1483 0.9026 0.4041
vn 0.9431 0.1813 0.2787
vn -0.2741 0.9060 0.3226
vn 0.9061 0.3072 0.2908
vn -0.3937 0.8718 0.2916
vn 0.8578 0.4301 0.2814
vn -0.5048 0.8049 0.3119
vn 0.7808 0.5641 0.2685
vn -0.6204 0.7238 0.3020
vn 0.6647 0.6293 0.4027
vn -0.7299 0.6668 0.1502
vn 0.4620 -0.4152 -0.7837
vn 0.5491 -0.4146 -0.7256
vn 0.3031 0.9064 -0.2942
vn 0.2795 0.9097 -0.3072
vn 0.7088 -0.3273 -0.6248
vn 0.3164 0.9402 -0.1263
vn 0.7259 -0.1932 -0.6601
vn 0.2281 0.9732 -0.0282
vn 0.7349 -0.0705 -0.6745
vn 0.0895 0.9960 0.0024
vn 0.7390 0.1416 -0.6586
vn -0.0001 0.9749 0.2226
vn 0.6777 0.2814 -0.6794
vn -0.0497 0.9395 0.3389
vn 0.5708 0.3472 -0.7441
vn -0.0952 0.9297 0.3558
vn 0.6018 0.5058 -0.6180
vn -0.2014 0.8421 0.5003
vn 0.5910 0.5901 -0.5500
vn -0.1813 0.7620 0.6217
vn 0.6186 0.6372 -0.4597
vn -0.2730 0.7190 0.6391
vn -0.8790 -0.3100 -0.3624
vn -0.8309 -0.0913 -0.5489
vn -0.1955 0.9284 -0.3158
vn -0.0239 0.9960 -0.0866
vn -0.7852 0.1758 -0.5938
vn 0.3859 0.8882 -0.2496
vn -0.7383 0.2325 -0.6331
vn 0.4234 0.8905 -0.1664
vn -0.6396 0.3926 -0.6609
vn 0.5485 0.8358 -0.0258
vn -0.6011 0.5869 -0.5425
vn 0.6790 0.7335 0.0291
vn -0.4612 0.6531 -0.6006
vn 0.7097 0.6775 0.1933
vn -0.3510 -0.0737 -0.9335
vn -0.1987 0.0743 -0.9772
vn 0.3858 0.8968 -0.2166
vn 0.4281 0.9037 -0.0105
vn -0.1264 0.2181 -0.9677
vn 0.7036 0.7075 0.0669
vn -0.0781 0.3183 -0.9448
vn 0.6964 0.6953 0.1774
vn -0.0559 0.4505 -0.8910
vn 0.7116 0.6451 0.2783
vn 0.1096 0.5067 -0.8551
vn 0.6511 0.6115 0.4496
vn -0.9844 -0.0473 -0.1695
vn -0.9083 0.1644 -0.3847
vn 0.0055 0.9522 -0.3053
vn 0.2367 0.9671 -0.0937
vn -0.8928 0.3242 -0.3128
vn 0.4027 0.8889 -0.2185
vn -0.8474 0.4348 -0.3046
vn 0.5092 0.8264 -0.2404
vn -0.7738 0.5163 -0.3670
vn 0.6158 0.7488 -0.2450
vn -0.6888 0.5788 -0.4366
vn 0.6984 0.6954 -0.1696
vn -0.7260 0.5869 -0.3584
vn 0.6652 0.7280 -0.1658
vn -0.6546 0.6255 -0.4245
vn 0.7106 0.7016 -0.0518
vn 0.0804 0.5459 0.8340
vn -0.2023 0.5390 0.8177
vn -0.7379 0.5945 -0.3195
vn -0.5929 0.5956 -0.5419
vn 0.0232 -0.0993 0.9948
vn -0.1524 -0.0216 0.9881
vn -0.5629 0.8210 0.0956
vn -0.4556 0.8883 -0.0577
vn -0.2126 0.1051 0.9715
vn -0.5116 0.8344 -0.2052
vn -0.3020 0.1423 0.9426
vn -0.6131 0.7293 -0.3036
vn -0.4872 0.2792 0.8275
vn -0.3633 0.7825 -0.5058
vn -0.3671 0.5706 0.7346
vn -0.3259 0.6607 -0.6763
vn -0.4734 0.6094 0.6360
vn -0.2130 0.6151 -0.7591
vn -0.8595 0.4811 0.1729
vn -0.8169 0.5767 0.0060
vn 0.3533 0.8013 -0.4828
vn 0.5285 0.7333 -0.4278
vn 0.6552 -0.0636 0.7528
vn 0.5148 -0.0240 0.8570
vn -0.4671 0.7510 0.4668
vn -0.4832 0.8190 0.3094
vn -0.0837 0.7716 0.6306
vn -0.2680 0.7552 0.5982
vn -0.7530 0.3654 -0.5472
vn -0.6564 0.3109 -0.6874
usemtl ChollaCactus_Cluster_Mat
s 1
f 1/1/1 2/2/2 3/3/3
f 4/4/4 3/3/3 2/2/2
f 2/2/2 5/5/5 4/4/4
f 6/6/6 4/4/4 5/5/5
f 5/5/5 7/7/7 6/6/6
f 8/8/8 6/6/6 7/7/7
f 7/7/7 9/9/9 8/8/8
f 10/10/10 8/8/8 9/9/9
f 9/9/9 11/11/11 10/10/10
f 12/12/12 10/10/10 11/11/11
f 11/11/11 13/13/13 12/12/12
f 14/14/14 12/12/12 13/13/13
f 13/13/13 15/15/15 14/14/14
f 16/16/16 14/14/14 15/15/15
f 15/15/15 17/17/17 16/16/16
f 18/18/18 16/16/16 17/17/17
f 17/17/17 19/19/19 18/18/18
f 20/20/20 18/18/18 19/19/19
f 19/19/19 21/21/21 20/20/20
f 22/22/22 20/20/20 21/21/21
f 21/21/21 23/23/23 22/22/22
f 24/24/24 22/22/22 23/23/23
f 23/23/23 25/25/25 24/24/24
f 26/26/26 24/24/24 25/25/25
f 25/25/25 27/27/27 26/26/26
f 28/28/28 26/26/26 27/27/27
f 27/27/27 29/29/29 28/28/28
f 30/30/30 28/28/28 29/29/29
f 31/31/31 32/32/32 33/33/33
f 34/34/34 33/33/33 32/32/32
f 32/32/32 35/35/35 34/34/34
f 36/36/36 34/34/34 35/35/35
f 35/35/35 37/37/37 36/36/36
f 38/38/38 36/36/36 37/37/37
f 37/37/37 39/39/39 38/38/38
f 40/40/40 38/38/38 39/39/39
f 39/39/39 41/41/41 40/40/40
f 42/42/42 40/40/40 41/41/41
f 43/43/43 44/44/44 45/45/45
f 46/46/46 45/45/45 44/44/44
f 44/44/44 47/47/47 46/46/46
f 48/48/48 46/46/46 47/47/47
f 47/47/47 49/49/49 48/48/48
f 50/50/50 48/48/48 49/49/49
f 49/49/49 51/51/51 50/50/50
f 52/52/52 50/50/50 51/51/51
f 51/51/51 53/53/53 52/52/52
f 54/54/54 52/52/52 53/53/53
f 53/53/53 55/55/55 54/54/54
f 56/56/56 54/54/54 55/55/55
f 55/55/55 57/57/57 56/56/56
f 58/58/58 56/56/56 57/57/57
f 57/57/57 59/59/59 58/58/58
f 60/60/60 58/58/58 59/59/59
f 61/61/61 62/62/62 63/63/63
f 64/64/64 63/63/63 62/62/62
f 62/62/62 65/65/65 64/64/64
f 66/66/66 64/64/64 65/65/65
f 65/65/65 67/67/67 66/66/66
f 68/68/68 66/66/66 67/67/67
f 67/67/67 69/69/69 68/68/68
f 70/70/70 68/68/68 69/69/69
f 69/69/69 71/71/71 70/70/70
f 72/72/72 70/70/70 71/71/71
f 71/71/71 73/73/73 72/72/72
f 74/74/74 72/72/72 73/73/73
f 73/73/73 75/75/75 74/74/74
f 76/76/76 74/74/74 75/75/75
f 75/75/75 77/77/77 76/76/76
f 78/78/78 76/76/76 77/77/77
f 77/77/77 79/79/79 78/78/78
f 80/80/80 78/78/78 79/79/79
f 79/79/79 81/81/81 80/80/80
f 82/82/82 80/80/80 81/81/81
f 83/83/83 84/84/84 85/85/85
f 86/86/86 85/85/85 84/84/84
f 84/84/84 87/87/87 86/86/86
f 88/88/88 86/86/86 87/87/87
f 87/87/87 89/89/89 88/88/88
f 90/90/90 88/88/88 89/89/89
f 89/89/89 91/91/91 90/90/90
f 92/92/92 90/90/90 91/91/91
f 91/91/91 93/93/93 92/92/92
f 94/94/94 92/92/92 93/93/93
f 93/93/93 95/95/95 94/94/94
f 96/96/96 94/94/94 95/95/95
f 97/97/97 98/98/98 99/99/99
f 100/100/100 99/99/99 98/98/98
f 98/98/98 101/101/101 100/100/100
f 102/102/102 100/100/100 101/101/101
f 101/101/101 103/103/103 102/102/102
f 104/104/104 102/102/102 103/103/103
f 103/103/103 105/105/105 104/104/104
f 106/106/106 104/104/104 105/105/105
f 105/105/105 107/107/107 106/106/106
f 108/108/108 106/106/106 107/107/107
f 109/109/109 110/110/110 111/111/111
f 112/112/112 111/111/111 110/110/110
f 110/110/110 113/113/113 112/112/112
f 114/114/114 112/112/112 113/113/113
f 113/113/113 115/115/115 114/114/114
f 116/116/116 114/114/114 115/115/115
f 115/115/115 117/117/117 116/116/116
f 118/118/118 116/116/116 117/117/117
f 117/117/117 119/119/119 118/118/118
f 120/120/120 118/118/118 119/119/119
f 119/119/119 121/121/121 120/120/120
f 122/122/122 120/120/120 121/121/121
f 121/121/121 123/123/123 122/122/122
f 124/124/124 122/122/122 123/123/123
f 125/125/125 126/126/126 127/127/127
f 128/128/128 127/127/127 126/126/126
f 129/129/129 130/130/130 131/131/131
f 132/132/132 131/131/131 130/130/130
f 130/130/130 133/133/133 132/132/132
f 134/134/134 132/132/132 133/133/133
f 133/133/133 135/135/135 134/134/134
f 136/136/136 134/134/134 135/135/135
f 135/135/135 137/137/137 136/136/136
f 138/138/138 136/136/136 137/137/137
f 137/137/137 139/139/139 138/138/138
f 140/140/140 138/138/138 139/139/139
f 139/139/139 141/141/141 140/140/140
f 142/142/142 140/140/140 141/141/141
f 143/143/143 144/144/144 145/145/145
f 146/146/146 145/145/145 144/144/144
f 147/147/147 148/148/148 149/149/149
f 150/150/150 149/149/149 148/148/148
f 151/151/151 152/152/152 153/153/153
f 154/154/154 153/153/153 152/152/152
