# Blender v2.91.0 OBJ File: ''
# www.blender.org
mtllib untitled.mtl
o free_grass
v -0.038569 0.000000 -0.357553
v 0.038569 -0.000000 0.357553
v 0.041014 0.764854 0.380222
v -0.041014 0.764854 -0.380221
v -0.308774 -0.000000 0.225630
v 0.308774 0.000000 -0.225630
v 0.308774 0.683843 -0.225629
v -0.308775 0.683843 0.225630
v -0.361931 0.000000 -0.123517
v 0.361931 -0.000000 0.123517
v 0.361931 0.864514 0.123518
v -0.361931 0.864514 -0.123517
vt 0.000000 0.000000
vt 1.000000 0.000000
vt 1.000000 1.000000
vt 0.000000 1.000000
vt 0.000000 0.000000
vt 1.000000 0.000000
vt 1.000000 1.000000
vt 0.000000 1.000000
vt 0.000000 0.000000
vt 1.000000 0.000000
vt 1.000000 1.000000
vt 0.000000 1.000000
vn -0.9942 -0.0000 0.1072
vn 0.5900 -0.0000 0.8074
vn -0.3230 -0.0000 0.9464
usemtl free_grass
s 1
f 1/1/1 2/2/1 3/3/1 4/4/1
f 5/5/2 6/6/2 7/7/2 8/8/2
f 9/9/3 10/10/3 11/11/3 12/12/3
