# 3ds Max Wavefront OBJ Exporter v0.97b - (c)2007 guruware
# File Created: 22.11.2015 02:39:02

mtllib 3d-model.mtl

#
# object Composant_1_002
#

v  8.6238 0.0000 -69.2913
v  8.6238 0.0000 69.2913
v  8.6238 157.4803 69.2913
v  8.6238 157.4803 -69.2913
# 4 vertices

vn -1.0000 0.0000 -0.0000
# 1 vertex normals

vt 0.0000 0.0000 0.0000
vt 0.9813 0.0000 0.0000
vt 0.9813 1.0000 0.0000
vt 0.0000 1.0000 0.0000
# 4 texture coords

g Composant_1_002
usemtl wire_087224198
s off
f 1/1/1 2/2/1 3/3/1 4/4/1 
# 1 polygons

#
# object Composant_1_001
#

v  -69.2913 0.0000 8.6238
v  69.2913 0.0000 8.6238
v  69.2913 157.4803 8.6238
v  -69.2913 157.4803 8.6238
# 4 vertices

vn 0.0000 0.0000 1.0000
# 1 vertex normals

vt 0.0000 0.0000 0.0000
vt 0.9813 0.0000 0.0000
vt 0.9813 1.0000 0.0000
vt 0.0000 1.0000 0.0000
# 4 texture coords

g Composant_1_001
usemtl wire_143224087
s off
f 5/5/2 6/6/2 7/7/2 8/8/2 
# 1 polygons

