# Blender v2.91.0 OBJ File: 'gizmo.blend'
# www.blender.org
mtllib xAxis.mtl
v 18.851831 -0.636430 -2.380442
v 18.463257 -0.649968 -2.364430
v 18.395067 -0.085701 -1.942948
v 18.186396 -0.301016 -2.088070
v 17.963390 -0.088881 -1.916401
v 17.918344 -0.668954 -2.341975
v 17.512775 -0.683084 -2.325263
v 17.522570 0.443247 -1.493704
v 17.911144 0.456785 -1.509716
v 18.172064 0.125521 -1.771955
v 18.423204 0.474626 -1.530817
v 18.828772 0.488756 -1.547529
v 18.517025 -1.243369 -1.561325
v 18.905600 -1.229831 -1.577337
v 18.448835 -0.679102 -1.139843
v 18.882542 -0.104644 -0.744424
v 18.476973 -0.118774 -0.727712
v 18.225832 -0.467872 -0.968827
v 17.964912 -0.136615 -0.706612
v 17.576338 -0.150153 -0.690600
v 18.017159 -0.682274 -1.113273
v 17.566544 -1.276484 -1.522158
v 17.972113 -1.262354 -1.538871
v 18.240166 -0.894409 -1.284942
vt 1.547687 0.119328
vt 1.353116 0.456334
vt 0.710067 0.161051
vt 0.829140 0.472154
vt 0.481168 0.528019
vt 1.080264 0.928928
vt 0.877184 1.280672
vt -0.327877 0.567899
vt -0.133306 0.230893
vt 0.363078 0.217483
vt 0.123096 -0.213208
vt 0.326175 -0.564952
vt -0.123057 0.150714
vt 0.123057 -0.150714
vt 0.651539 0.783169
vt 0.897654 0.481742
vt -0.418295 -0.029430
vt 0.418295 0.029430
vt -0.488479 0.968104
vt 0.348111 1.026964
vt -0.256492 0.320664
vt 0.256492 -0.320664
vt 0.524425 0.945300
vt 1.037408 0.303972
vt -0.128439 -0.157305
vt 0.128439 0.157305
vt -0.903035 0.475151
vt -0.646158 0.789760
vt -0.155103 -0.191611
vt 0.155103 0.191611
vt -0.932369 0.437561
vt -0.622163 0.820783
vt -0.248102 -0.009475
vt 0.248102 0.009475
vt -0.286265 0.989796
vt 0.209939 1.008747
vt -0.123057 -0.150714
vt 0.123057 0.150714
vt -0.897654 0.481742
vt -0.651539 0.783169
vt -0.334577 1.025717
vt -0.404035 0.028132
vt 0.473494 0.969453
vt 0.404035 -0.028132
vt -0.265445 -0.332216
vt 0.265445 0.332216
vt -1.046690 0.292009
vt -0.515799 0.956441
vt -0.128439 0.157305
vt 0.128439 -0.157305
vt 0.646158 0.789760
vt 0.903035 0.475151
vt -0.163668 0.202829
vt 0.163668 -0.202829
vt 0.614566 0.830804
vt 0.941901 0.425147
vt -0.219229 1.010267
vt -0.261869 0.011176
vt 0.304509 0.987914
vt 0.261869 -0.011176
vt -1.353116 0.456334
vt -0.710067 0.161051
vt -0.829140 0.472154
vt -0.481168 0.528019
vt -1.080264 0.928928
vt -0.877184 1.280672
vt -1.547687 0.119328
vt -0.326175 -0.564952
vt -0.123096 -0.213208
vt -0.363078 0.217483
vt 0.133306 0.230893
vt 0.327877 0.567899
vn -0.0538 0.5934 -0.8031
vn 0.0035 -0.8042 -0.5944
vn 0.8369 0.4655 0.2879
vn 0.8475 -0.3982 -0.3510
vn -0.0035 0.8042 0.5944
vn -0.8589 0.3828 0.3403
vn 0.8491 0.4504 0.2759
vn -0.8372 -0.4651 -0.2876
vn -0.8464 0.3997 0.3520
vn 0.8560 -0.3868 -0.3431
vn -0.8475 -0.4525 -0.2776
vn -0.8474 -0.4525 -0.2776
vn 0.0538 -0.5934 0.8031
g Xtext_Body39_Opaque(255,0,0).003
usemtl Opaque(255,0,0).003
s 1
f 1/1/1 2/2/1 3/3/1
f 3/3/1 2/2/1 4/4/1
f 3/3/1 4/4/1 5/5/1
f 5/5/1 4/4/1 6/6/1
f 5/5/1 6/6/1 7/7/1
f 8/8/1 9/9/1 5/5/1
f 5/5/1 9/9/1 10/10/1
f 5/5/1 10/10/1 3/3/1
f 3/3/1 10/10/1 11/11/1
f 3/3/1 11/11/1 12/12/1
f 2/13/2 1/14/2 13/15/2
f 13/15/2 1/14/2 14/16/2
f 1/17/3 3/18/3 14/19/3
f 14/19/3 3/18/3 15/20/3
f 3/21/4 12/22/4 15/23/4
f 15/23/4 12/22/4 16/24/4
f 12/25/5 11/26/5 16/27/5
f 16/27/5 11/26/5 17/28/5
f 11/29/6 10/30/6 17/31/6
f 17/31/6 10/30/6 18/32/6
f 10/33/7 9/34/7 18/35/7
f 18/35/7 9/34/7 19/36/7
f 9/37/5 8/38/5 19/39/5
f 19/39/5 8/38/5 20/40/5
f 20/41/8 8/42/8 21/43/8
f 21/43/8 8/42/8 5/44/8
f 5/45/9 7/46/9 21/47/9
f 21/47/9 7/46/9 22/48/9
f 7/49/2 6/50/2 22/51/2
f 22/51/2 6/50/2 23/52/2
f 6/53/10 4/54/10 23/55/10
f 23/55/10 4/54/10 24/56/10
f 24/57/11 4/58/11 13/59/11
f 13/59/11 4/58/11 2/60/12
f 13/61/13 15/62/13 24/63/13
f 24/63/13 15/62/13 21/64/13
f 24/63/13 21/64/13 23/65/13
f 23/65/13 21/64/13 22/66/13
f 13/61/13 14/67/13 15/62/13
f 16/68/13 17/69/13 15/62/13
f 15/62/13 17/69/13 18/70/13
f 15/62/13 18/70/13 21/64/13
f 21/64/13 18/70/13 19/71/13
f 21/64/13 19/71/13 20/72/13
v 1.574768 -0.051764 -0.193185
v 0.974792 0.000000 0.000000
v 1.574768 0.000000 -0.200000
v 1.574768 -0.141421 -0.141421
v 1.574768 -0.100000 -0.173205
v 1.574768 -0.193185 -0.051764
v 1.574768 -0.173205 -0.100000
v 1.574768 -0.193185 0.051764
v 1.574768 -0.200000 -0.000000
v 1.574768 -0.141421 0.141421
v 1.574768 -0.173205 0.100000
v 1.574768 -0.051764 0.193185
v 1.574768 -0.100000 0.173205
v 1.574768 0.051764 0.193185
v 1.574768 -0.000000 0.200000
v 1.574768 0.141421 0.141421
v 1.574768 0.100000 0.173205
v 1.574768 0.193185 0.051764
v 1.574768 0.173205 0.100000
v 1.574768 0.193185 -0.051764
v 1.574768 0.200000 0.000000
v 1.574768 0.141421 -0.141421
v 1.574768 0.173205 -0.100000
v 1.574768 0.051764 -0.193185
v 1.574768 0.100000 -0.173205
v 14.000061 0.051764 0.193185
v 14.000061 -0.000000 0.200000
v 14.000061 -0.051764 0.193185
v 14.000061 -0.100000 0.173205
v 14.000061 -0.141421 0.141421
v 14.000061 -0.173205 0.100000
v 14.000061 -0.193185 0.051764
v 14.000061 -0.200000 -0.000000
v 14.000061 -0.193185 -0.051764
v 14.000061 -0.173205 -0.100000
v 14.000061 -0.141421 -0.141421
v 14.000061 -0.100000 -0.173205
v 14.000061 -0.051764 -0.193185
v 14.000061 0.000000 -0.200000
v 14.000061 0.051764 -0.193185
v 14.000061 0.100000 -0.173205
v 14.000061 0.141421 -0.141421
v 14.000061 0.173205 -0.100000
v 14.000061 0.193185 -0.051764
v 14.000061 0.200000 0.000000
v 14.000061 0.193185 0.051764
v 14.000061 0.173205 0.100000
v 14.000061 0.141421 0.141421
v 14.000061 0.100000 0.173205
v 14.000061 0.258819 0.965926
v 14.000061 -0.000000 1.000000
v 14.000061 0.500000 0.866026
v 14.000061 0.707107 0.707107
v 14.000061 0.866025 0.500000
v 14.000061 0.965926 0.258819
v 14.000061 1.000000 0.000000
v 14.000061 0.965926 -0.258819
v 14.000061 0.866025 -0.500000
v 14.000061 0.707107 -0.707107
v 14.000061 0.500000 -0.866026
v 14.000061 0.258819 -0.965926
v 14.000061 0.000000 -1.000000
v 14.000061 -0.258819 -0.965926
v 14.000061 -0.500000 -0.866026
v 14.000061 -0.707107 -0.707107
v 14.000061 -0.866025 -0.500000
v 14.000061 -0.965926 -0.258819
v 14.000061 -1.000000 -0.000000
v 14.000061 -0.965926 0.258819
v 14.000061 -0.866025 0.500000
v 14.000061 -0.707107 0.707107
v 14.000061 -0.500000 0.866026
v 14.000061 -0.258819 0.965926
v 19.671356 0.000000 0.000000
vt -0.569210 0.035829
vt 0.063246 0.052360
vt -0.569210 0.062009
vt -0.569210 -0.016531
vt 0.063246 0.000000
vt -0.569210 0.009649
vt -0.569210 -0.068891
vt 0.063246 -0.052360
vt -0.569210 -0.042711
vt -0.569210 -0.121251
vt 0.063246 -0.104720
vt -0.569210 -0.095071
vt -0.569210 -0.173610
vt 0.063246 -0.157080
vt -0.569210 -0.147430
vt -0.569210 -0.225970
vt 0.063246 -0.209440
vt -0.569210 -0.199790
vt -0.569210 -0.278330
vt 0.063246 -0.261799
vt -0.569210 -0.252150
vt -0.569210 0.297628
vt 0.063246 0.314159
vt -0.569210 0.323808
vt -0.569210 0.245269
vt 0.063246 0.261799
vt -0.569210 0.271449
vt -0.569210 0.192909
vt 0.063246 0.209440
vt -0.569210 0.219089
vt -0.569210 0.140549
vt 0.063246 0.157080
vt -0.569210 0.166729
vt -0.569210 0.088189
vt 0.063246 0.104720
vt -0.569210 0.114369
vt -0.569210 -0.304510
vt 0.063246 -0.287979
vt 0.063246 -0.235619
vt 0.063246 -0.183260
vt 0.063246 -0.130900
vt 0.063246 -0.078540
vt 0.063246 -0.026180
vt 0.063246 0.026180
vt 0.063246 0.078540
vt 0.063246 0.130900
vt 0.063246 0.183260
vt 0.063246 0.235619
vt 0.063246 0.287979
vt 0.357738 -0.575959
vt -12.067566 -0.575959
vt 0.357738 -0.628319
vt -12.067566 -0.628319
vt 0.357738 0.628319
vt -12.067566 0.628319
vt 0.357738 0.575959
vt -12.067566 0.575959
vt 0.357738 0.523599
vt -12.067566 0.523599
vt 0.357738 0.471239
vt -12.067566 0.471239
vt 0.357738 0.418879
vt -12.067566 0.418879
vt 0.357738 0.366519
vt -12.067566 0.366519
vt 0.357738 0.314159
vt -12.067566 0.314159
vt 0.357738 0.261799
vt -12.067566 0.261799
vt 0.357738 0.209440
vt -12.067566 0.209440
vt 0.357738 0.157080
vt -12.067566 0.157080
vt 0.357738 0.104720
vt -12.067566 0.104720
vt 0.357738 0.052360
vt -12.067566 0.052360
vt 0.357738 -0.000000
vt -12.067566 0.000000
vt 0.357738 -0.052360
vt -12.067566 -0.052360
vt 0.357738 -0.104720
vt -12.067566 -0.104720
vt 0.357738 -0.157080
vt -12.067566 -0.157080
vt 0.357738 -0.209440
vt -12.067566 -0.209440
vt 0.357738 -0.261799
vt -12.067566 -0.261799
vt 0.357738 -0.314159
vt -12.067566 -0.314159
vt 0.357738 -0.366519
vt -12.067566 -0.366519
vt 0.357738 -0.418879
vt -12.067566 -0.418879
vt 0.357738 -0.471239
vt -12.067566 -0.471239
vt 0.357738 -0.523599
vt -12.067566 -0.523599
vt -0.034074 0.258819
vt -0.806815 0.051764
vt 0.000000 -0.000000
vt -0.800000 -0.000000
vt -0.806815 -0.051764
vt -0.133975 0.500000
vt -0.858579 0.141421
vt -0.826795 0.100000
vt -0.900000 0.173205
vt -0.292893 0.707107
vt -0.948236 0.193185
vt -0.500000 0.866025
vt -1.000000 0.200000
vt -0.741181 0.965926
vt -1.000000 1.000000
vt -1.258819 0.965926
vt -1.500000 0.866025
vt -1.051764 0.193185
vt -1.707107 0.707107
vt -1.100000 0.173205
vt -1.866025 0.500000
vt -1.141421 0.141421
vt -1.965926 0.258819
vt -1.173205 0.100000
vt -1.193185 0.051764
vt -2.000000 0.000000
vt -1.200000 0.000000
vt -1.193185 -0.051764
vt -1.965926 -0.258819
vt -1.173205 -0.100000
vt -1.141421 -0.141421
vt -1.866025 -0.500000
vt -1.100000 -0.173205
vt -1.707107 -0.707107
vt -1.051764 -0.193185
vt -1.500000 -0.866025
vt -1.000000 -0.200000
vt -1.258819 -0.965926
vt -1.000000 -1.000000
vt -0.741181 -0.965926
vt -0.500000 -0.866025
vt -0.948236 -0.193185
vt -0.292893 -0.707107
vt -0.900000 -0.173205
vt -0.133975 -0.500000
vt -0.858579 -0.141421
vt -0.034074 -0.258819
vt -0.826795 -0.100000
vt 0.575877 -1.129852
vt -5.182893 -1.178097
vt 0.575877 -1.260751
vt 0.575877 -0.868052
vt -5.182893 -0.916298
vt 0.575877 -0.998952
vt 0.575877 -0.606253
vt -5.182893 -0.654498
vt 0.575877 -0.737152
vt 0.575877 -0.344453
vt -5.182893 -0.392699
vt 0.575877 -0.475353
vt 0.575877 -0.082654
vt -5.182893 -0.130900
vt 0.575877 -0.213554
vt 0.575877 0.179145
vt -5.182893 0.130900
vt 0.575877 0.048246
vt 0.575877 0.440945
vt -5.182893 0.392699
vt 0.575877 0.310045
vt 0.575877 0.702744
vt -5.182893 0.654498
vt 0.575877 0.571844
vt 0.575877 0.964544
vt -5.182893 0.916298
vt 0.575877 0.833644
vt 0.575877 1.226343
vt -5.182893 1.178097
vt 0.575877 1.095443
vt 0.575877 1.488142
vt -5.182893 1.439897
vt 0.575877 1.357243
vt 0.575877 -1.391651
vt -5.182893 -1.439897
vt 0.575877 -1.522551
vt -5.182893 -1.570796
vt 0.575877 -1.653450
vt -5.182893 0.523599
vt -5.182893 -0.523599
vt -5.182893 1.308997
vt -5.182893 1.047198
vt -5.182893 0.785398
vt -5.182893 0.261799
vt -5.182893 0.000000
vt -5.182893 -0.261799
vt -5.182893 -0.785398
vt -5.182893 -1.047198
vt -5.182893 -1.308997
vn -0.3162 -0.2454 -0.9164
vn -0.3162 -0.0913 -0.9443
vn -0.3162 0.0001 -0.9487
vn -0.3162 -0.6708 -0.6708
vn -0.3163 -0.5513 -0.7721
vn -0.3162 -0.4743 -0.8216
vn -0.3163 -0.9163 -0.2456
vn -0.3163 -0.8634 -0.3930
vn -0.3163 -0.8215 -0.4744
vn -0.3162 -0.9164 0.2455
vn -0.3162 -0.9443 0.0914
vn -0.3162 -0.9487 -0.0000
vn -0.3162 -0.6708 0.6708
vn -0.3162 -0.7720 0.5513
vn -0.3162 -0.8216 0.4743
vn -0.3162 -0.2457 0.9163
vn -0.3162 -0.3931 0.8634
vn -0.3162 -0.4745 0.8215
vn -0.3162 0.2454 0.9164
vn -0.3162 0.0913 0.9443
vn -0.3162 -0.0001 0.9487
vn -0.3162 0.6708 0.6708
vn -0.3163 0.5513 0.7721
vn -0.3162 0.4743 0.8216
vn -0.3163 0.9163 0.2456
vn -0.3163 0.8634 0.3930
vn -0.3163 0.8215 0.4744
vn -0.3162 0.9164 -0.2455
vn -0.3162 0.9443 -0.0914
vn -0.3162 0.9487 0.0000
vn -0.3162 0.6708 -0.6708
vn -0.3162 0.7720 -0.5513
vn -0.3162 0.8216 -0.4743
vn -0.3162 0.2457 -0.9163
vn -0.3162 0.3931 -0.8634
vn -0.3162 0.4745 -0.8215
vn -0.3162 0.4745 0.8215
vn -0.3162 0.3328 0.8884
vn -0.3162 0.2457 0.9163
vn -0.3162 0.0001 0.9487
vn -0.3162 -0.1560 0.9358
vn -0.3162 -0.2454 0.9164
vn -0.3162 -0.4743 0.8216
vn -0.3163 -0.6030 0.7324
vn -0.3162 -0.8884 0.3327
vn -0.3162 -0.9358 -0.1561
vn -0.3162 -0.9164 -0.2455
vn -0.3162 -0.8216 -0.4743
vn -0.3162 -0.7323 -0.6031
vn -0.3162 -0.4745 -0.8215
vn -0.3162 -0.3328 -0.8884
vn -0.3162 -0.2457 -0.9163
vn -0.3162 -0.0001 -0.9487
vn -0.3162 0.1560 -0.9358
vn -0.3162 0.2454 -0.9164
vn -0.3162 0.4743 -0.8216
vn -0.3163 0.6030 -0.7324
vn -0.3162 0.8884 -0.3327
vn -0.3162 0.9358 0.1561
vn -0.3162 0.9164 0.2455
vn -0.3162 0.8216 0.4743
vn -0.3162 0.7323 0.6031
vn 0.0000 0.2588 0.9659
vn 0.0000 -0.0000 1.0000
vn 0.0000 -0.2588 0.9659
vn 0.0000 -0.5000 0.8660
vn 0.0000 -0.7071 0.7071
vn 0.0000 -0.8660 0.5000
vn 0.0000 -0.9659 0.2588
vn 0.0000 -1.0000 -0.0000
vn 0.0000 -0.9659 -0.2588
vn 0.0000 -0.8660 -0.5000
vn 0.0000 -0.7071 -0.7071
vn 0.0000 -0.5000 -0.8660
vn 0.0000 -0.2588 -0.9659
vn 0.0000 0.0000 -1.0000
vn 0.0000 0.2588 -0.9659
vn 0.0000 0.5000 -0.8660
vn 0.0000 0.7071 -0.7071
vn 0.0000 0.8660 -0.5000
vn 0.0000 0.9659 -0.2588
vn 0.0000 1.0000 0.0000
vn 0.0000 0.9659 0.2588
vn 0.0000 0.8660 0.5000
vn 0.0000 0.7071 0.7071
vn 0.0000 0.5000 0.8660
vn -1.0000 -0.0000 0.0000
vn -1.0000 0.0008 0.0000
vn -1.0000 0.0007 -0.0000
vn -1.0000 -0.0005 -0.0000
vn -1.0000 -0.0007 0.0000
vn 0.1736 -0.2549 0.9512
vn 0.1737 -0.1621 0.9714
vn 0.1736 0.0000 0.9848
vn 0.1736 -0.6964 0.6963
vn 0.1736 -0.6261 0.7602
vn 0.1736 -0.4924 0.8529
vn 0.1736 -0.9512 0.2549
vn 0.1737 -0.9223 0.3453
vn 0.1736 -0.8529 0.4924
vn 0.1736 -0.9512 -0.2549
vn 0.1737 -0.9714 -0.1621
vn 0.1736 -0.9848 0.0000
vn 0.1736 -0.6963 -0.6964
vn 0.1737 -0.7602 -0.6261
vn 0.1736 -0.8529 -0.4924
vn 0.1736 -0.2549 -0.9513
vn 0.1737 -0.3453 -0.9223
vn 0.1736 -0.4924 -0.8529
vn 0.1736 0.2549 -0.9512
vn 0.1737 0.1621 -0.9714
vn 0.1736 -0.0000 -0.9848
vn 0.1736 0.6964 -0.6963
vn 0.1736 0.6261 -0.7602
vn 0.1736 0.4924 -0.8529
vn 0.1736 0.9512 -0.2549
vn 0.1737 0.9223 -0.3453
vn 0.1736 0.8529 -0.4924
vn 0.1736 0.9512 0.2549
vn 0.1737 0.9714 0.1621
vn 0.1736 0.9848 -0.0000
vn 0.1736 0.6963 0.6964
vn 0.1737 0.7602 0.6261
vn 0.1736 0.8529 0.4924
vn 0.1736 0.2549 0.9513
vn 0.1737 0.3453 0.9223
vn 0.1736 0.4924 0.8529
vn 0.1736 0.5723 0.8014
vn 0.1736 0.6964 0.6963
vn 0.1736 0.4079 -0.8964
vn 0.1736 0.2549 -0.9513
vn 0.1737 -0.9802 0.0949
vn 0.1737 0.8963 0.4080
vn 0.1737 0.9802 -0.0949
vn 0.1737 0.8015 -0.5723
vn 0.1736 0.6964 -0.6964
vn 0.1737 -0.0949 -0.9802
vn 0.1736 -0.2549 -0.9512
vn 0.1736 -0.5723 -0.8014
vn 0.1736 -0.6964 -0.6963
vn 0.1737 -0.8963 -0.4080
vn 0.1737 -0.8015 0.5723
vn 0.1736 -0.6964 0.6964
vn 0.1736 -0.4079 0.8964
vn 0.1736 -0.2549 0.9513
vn 0.1737 0.0949 0.9802
vn 0.1736 0.2549 0.9512
g Body40.001_Body40.002_Opaque(255,0,0).003
usemtl Opaque(255,0,0).003
s 1
f 25/73/14 26/74/15 27/75/16
f 28/76/17 26/77/18 29/78/19
f 30/79/20 26/80/21 31/81/22
f 32/82/23 26/83/24 33/84/25
f 34/85/26 26/86/27 35/87/28
f 36/88/29 26/89/30 37/90/31
f 38/91/32 26/92/33 39/93/34
f 40/94/35 26/95/36 41/96/37
f 42/97/38 26/98/39 43/99/40
f 44/100/41 26/101/42 45/102/43
f 46/103/44 26/104/45 47/105/46
f 48/106/47 26/107/48 49/108/49
f 41/109/50 26/110/51 38/91/52
f 39/93/53 26/111/54 36/88/55
f 37/90/56 26/112/57 34/85/26
f 35/87/28 26/113/58 32/82/23
f 33/84/25 26/114/59 30/79/60
f 31/81/61 26/115/62 28/76/17
f 29/78/63 26/116/64 25/73/65
f 27/75/66 26/117/67 48/106/68
f 49/108/69 26/118/70 46/103/44
f 47/105/46 26/119/71 44/100/41
f 45/102/43 26/120/72 42/97/73
f 43/99/74 26/121/75 40/94/35
f 50/122/76 38/123/76 51/124/77
f 51/124/77 38/123/76 39/125/77
f 51/126/77 39/127/77 52/128/78
f 52/128/78 39/127/77 36/129/78
f 52/128/78 36/129/78 53/130/79
f 53/130/79 36/129/78 37/131/79
f 53/130/79 37/131/79 54/132/80
f 54/132/80 37/131/79 34/133/80
f 54/132/80 34/133/80 55/134/81
f 55/134/81 34/133/80 35/135/81
f 55/134/81 35/135/81 56/136/82
f 56/136/82 35/135/81 32/137/82
f 56/136/82 32/137/82 57/138/83
f 57/138/83 32/137/82 33/139/83
f 57/138/83 33/139/83 58/140/84
f 58/140/84 33/139/83 30/141/84
f 58/140/84 30/141/84 59/142/85
f 59/142/85 30/141/84 31/143/85
f 59/142/85 31/143/85 60/144/86
f 60/144/86 31/143/85 28/145/86
f 60/144/86 28/145/86 61/146/87
f 61/146/87 28/145/86 29/147/87
f 61/146/87 29/147/87 62/148/88
f 62/148/88 29/147/87 25/149/88
f 62/148/88 25/149/88 63/150/89
f 63/150/89 25/149/88 27/151/89
f 63/150/89 27/151/89 64/152/90
f 64/152/90 27/151/89 48/153/90
f 64/152/90 48/153/90 65/154/91
f 65/154/91 48/153/90 49/155/91
f 65/154/91 49/155/91 66/156/92
f 66/156/92 49/155/91 46/157/92
f 66/156/92 46/157/92 67/158/93
f 67/158/93 46/157/92 47/159/93
f 67/158/93 47/159/93 68/160/94
f 68/160/94 47/159/93 44/161/94
f 68/160/94 44/161/94 69/162/95
f 69/162/95 44/161/94 45/163/95
f 69/162/95 45/163/95 70/164/96
f 70/164/96 45/163/95 42/165/96
f 70/164/96 42/165/96 71/166/97
f 71/166/97 42/165/96 43/167/97
f 71/166/97 43/167/97 72/168/98
f 72/168/98 43/167/97 40/169/98
f 72/168/98 40/169/98 73/170/99
f 73/170/99 40/169/98 41/171/99
f 73/170/99 41/171/99 50/122/76
f 50/122/76 41/171/99 38/123/76
f 74/172/100 50/173/100 75/174/100
f 75/174/100 50/173/100 51/175/100
f 75/174/100 51/175/100 52/176/100
f 76/177/100 72/178/101 74/172/100
f 74/172/100 72/178/101 73/179/100
f 74/172/100 73/179/100 50/173/100
f 72/178/101 76/177/100 71/180/100
f 71/180/100 76/177/100 77/181/100
f 71/180/100 77/181/100 70/182/100
f 70/182/100 77/181/100 78/183/100
f 70/182/100 78/183/100 69/184/100
f 69/184/100 78/183/100 79/185/100
f 69/184/100 79/185/100 80/186/100
f 80/186/100 81/187/100 69/184/100
f 69/184/100 81/187/100 82/188/100
f 69/184/100 82/188/100 68/189/100
f 68/189/100 82/188/100 83/190/100
f 68/189/100 83/190/100 67/191/100
f 67/191/100 83/190/100 84/192/100
f 67/191/100 84/192/100 66/193/102
f 66/193/102 84/192/100 85/194/100
f 66/193/102 85/194/100 65/195/100
f 65/195/100 85/194/100 64/196/100
f 64/196/100 85/194/100 86/197/100
f 64/196/100 86/197/100 63/198/100
f 63/198/100 86/197/100 62/199/100
f 62/199/100 86/197/100 87/200/100
f 62/199/100 87/200/100 61/201/100
f 61/201/100 87/200/100 60/202/103
f 60/202/103 87/200/100 88/203/100
f 60/202/103 88/203/100 59/204/100
f 59/204/100 88/203/100 89/205/100
f 59/204/100 89/205/100 58/206/100
f 58/206/100 89/205/100 90/207/100
f 58/206/100 90/207/100 57/208/100
f 57/208/100 90/207/100 91/209/100
f 57/208/100 91/209/100 92/210/100
f 92/210/100 93/211/100 57/208/100
f 57/208/100 93/211/100 94/212/100
f 57/208/100 94/212/100 56/213/100
f 56/213/100 94/212/100 95/214/100
f 56/213/100 95/214/100 55/215/100
f 55/215/100 95/214/100 96/216/100
f 55/215/100 96/216/100 54/217/104
f 54/217/104 96/216/100 97/218/100
f 54/217/104 97/218/100 53/219/100
f 53/219/100 97/218/100 52/176/100
f 52/176/100 97/218/100 75/174/100
f 97/220/105 98/221/106 75/222/107
f 95/223/108 98/224/109 96/225/110
f 93/226/111 98/227/112 94/228/113
f 91/229/114 98/230/115 92/231/116
f 89/232/117 98/233/118 90/234/119
f 87/235/120 98/236/121 88/237/122
f 85/238/123 98/239/124 86/240/125
f 83/241/126 98/242/127 84/243/128
f 81/244/129 98/245/130 82/246/131
f 79/247/132 98/248/133 80/249/134
f 77/250/135 98/251/136 78/252/137
f 74/253/138 98/254/139 76/255/140
f 76/255/140 98/256/141 77/257/142
f 84/243/128 98/258/143 85/238/144
f 92/231/116 98/259/145 93/226/111
f 78/252/137 98/260/146 79/247/132
f 80/249/134 98/261/147 81/244/129
f 82/246/131 98/262/148 83/241/149
f 86/240/125 98/263/150 87/235/151
f 88/237/122 98/264/152 89/232/153
f 90/234/119 98/265/154 91/229/114
f 94/228/113 98/266/155 95/223/156
f 96/225/110 98/267/157 97/220/158
f 75/222/107 98/268/159 74/253/160
