# Blender v2.91.0 OBJ File: 'gizmo.blend'
# www.blender.org
mtllib yAxis.mtl
v -2.810293 19.476189 -1.604743
v -2.885416 19.139948 -1.534117
v -2.477345 19.498177 -1.146006
v -2.542484 19.162588 -1.061609
v -2.320593 19.336468 -0.839575
v -2.084073 19.103079 -0.382779
v -2.166955 18.732122 -0.304851
v -1.969197 19.617218 -0.490793
v -1.883653 20.000099 -0.571218
v -2.104467 18.849323 -2.086971
v -2.029335 19.185575 -2.157617
v -1.696396 19.207552 -1.698860
v -1.102704 19.709475 -1.124072
v -1.188248 19.326593 -1.043648
v -1.539644 19.045843 -1.392430
v -1.303115 18.812466 -0.935652
v -1.385997 18.441509 -0.857725
v -1.761535 18.871965 -1.614463
vt 0.320552 -0.555213
vt 0.672254 -0.555213
vt 0.320552 0.012048
vt 0.672254 0.029066
vt 0.503210 0.345598
vt 0.767554 0.844787
vt 1.155560 0.844787
vt 0.229790 0.844787
vt -0.170696 0.844787
vt -0.175851 0.000000
vt 0.175851 -0.000000
vt -0.175851 1.000000
vt 0.175851 1.000000
vt -0.163754 -0.231583
vt 0.163754 0.231583
vt -0.980251 0.345767
vt -0.652742 0.808934
vt -0.306745 -0.373634
vt 0.306745 0.373634
vt -1.079642 0.260896
vt -0.466153 1.008165
vt -0.200243 0.000000
vt 0.200243 -0.000000
vt -0.200243 1.000000
vt 0.200243 1.000000
vt -0.178617 0.221547
vt 0.178617 -0.221547
vt 0.599881 0.849194
vt 0.957116 0.406100
vt -0.176450 -0.220527
vt 0.176450 0.220527
vt -0.957269 0.404230
vt -0.604369 0.845284
vt -0.194003 -0.000000
vt 0.194003 0.000000
vt -0.194003 1.000000
vt 0.194003 1.000000
vt 0.471530 1.001202
vt -0.301017 0.366245
vt 1.073564 0.268713
vt 0.301017 -0.366245
vt -0.168667 0.238531
vt 0.168667 -0.238531
vt 0.647830 0.815881
vt 0.985163 0.338819
vt -0.672254 -0.555213
vt -0.320552 0.012048
vt -0.672254 0.029066
vt -0.503210 0.345598
vt -1.155560 0.844787
vt -0.767554 0.844787
vt -0.320552 -0.555213
vt 0.170696 0.844787
vt -0.229790 0.844787
vn -0.7809 0.2906 0.5529
vn -0.7810 0.2906 0.5529
vn -0.5869 -0.0387 -0.8087
vn -0.5869 -0.0388 -0.8087
vn 0.2136 0.9561 -0.2008
vn -0.1142 0.8038 -0.5839
vn 0.5869 0.0387 0.8087
vn 0.0946 -0.8199 0.5646
vn 0.4634 0.8630 0.2010
vn -0.4829 -0.8423 -0.2394
vn -0.4830 -0.8423 -0.2394
vn -0.2136 -0.9561 0.2008
vn 0.7810 -0.2906 -0.5529
vn 0.7809 -0.2906 -0.5529
vn 0.7810 -0.2906 -0.5528
g Ytext_Body21_Opaque(255,0,0).004
usemtl Opaque(255,0,0).004
s 1
f 1/1/1 2/2/1 3/3/1
f 3/3/1 2/2/1 4/4/2
f 3/3/1 4/4/2 5/5/2
f 5/5/2 4/4/2 6/6/2
f 6/6/2 4/4/2 7/7/2
f 5/5/2 8/8/2 3/3/1
f 3/3/1 8/8/2 9/9/2
f 2/10/3 1/11/3 10/12/4
f 10/12/4 1/11/3 11/13/4
f 1/14/5 3/15/5 11/16/5
f 11/16/5 3/15/5 12/17/5
f 3/18/6 9/19/6 12/20/6
f 12/20/6 9/19/6 13/21/6
f 9/22/7 8/23/7 13/24/7
f 13/24/7 8/23/7 14/25/7
f 8/26/8 5/27/8 14/28/8
f 14/28/8 5/27/8 15/29/8
f 5/30/9 6/31/9 15/32/9
f 15/32/9 6/31/9 16/33/9
f 6/34/7 7/35/7 16/36/7
f 16/36/7 7/35/7 17/37/7
f 17/38/10 7/39/11 18/40/11
f 18/40/11 7/39/11 4/41/11
f 4/42/12 2/43/12 18/44/12
f 18/44/12 2/43/12 10/45/12
f 10/46/13 12/47/13 18/48/13
f 18/48/13 12/47/13 15/49/13
f 18/48/13 15/49/13 17/50/14
f 17/50/14 15/49/13 16/51/14
f 10/46/13 11/52/15 12/47/13
f 12/47/13 13/53/14 15/49/13
f 15/49/13 13/53/14 14/54/14
v 0.193207 1.574695 0.051764
v 0.000000 0.974695 0.000000
v 0.200012 1.574695 0.000000
v 0.141449 1.574695 0.141422
v 0.173187 1.574695 0.100000
v 0.051758 1.574695 0.193185
v 0.100006 1.574695 0.173205
v -0.051758 1.574695 0.193185
v 0.000000 1.574695 0.200000
v -0.141418 1.574695 0.141422
v -0.100006 1.574695 0.173205
v -0.193176 1.574695 0.051764
v -0.173187 1.574695 0.100000
v -0.193176 1.574695 -0.051764
v -0.199982 1.574695 0.000000
v -0.141418 1.574695 -0.141421
v -0.173187 1.574695 -0.100000
v -0.051758 1.574695 -0.193185
v -0.100006 1.574695 -0.173205
v 0.051758 1.574695 -0.193185
v 0.000000 1.574695 -0.200000
v 0.141449 1.574695 -0.141421
v 0.100006 1.574695 -0.173205
v 0.193207 1.574695 -0.051764
v 0.173187 1.574695 -0.100000
v -0.193176 14.000000 -0.051762
v -0.199982 14.000000 0.000002
v -0.193176 14.000000 0.051766
v -0.173187 14.000000 0.100002
v -0.141418 14.000000 0.141424
v -0.100006 14.000000 0.173207
v -0.051758 14.000000 0.193187
v 0.000000 14.000000 0.200002
v 0.051758 14.000000 0.193187
v 0.100006 14.000000 0.173207
v 0.141449 14.000000 0.141424
v 0.173187 14.000000 0.100002
v 0.193207 14.000000 0.051766
v 0.200012 14.000000 0.000002
v 0.193207 14.000000 -0.051762
v 0.173187 14.000000 -0.099998
v 0.141449 14.000000 -0.141419
v 0.100006 14.000000 -0.173203
v 0.051758 14.000000 -0.193183
v 0.000000 14.000000 -0.199998
v -0.051758 14.000000 -0.193183
v -0.100006 14.000000 -0.173203
v -0.141418 14.000000 -0.141419
v -0.173187 14.000000 -0.099998
v -0.965912 14.000000 0.258821
v -1.000000 14.000000 0.000002
v -0.965912 14.000000 -0.258817
v -0.865997 14.000000 -0.499998
v -0.707092 14.000000 -0.707105
v -0.500000 14.000000 -0.866023
v -0.258820 14.000000 -0.965924
v 0.000000 14.000000 -0.999998
v 0.258820 14.000000 -0.965924
v 0.500000 14.000000 -0.866023
v 0.707123 14.000000 -0.707105
v 0.866028 14.000000 -0.499998
v 0.965912 14.000000 -0.258817
v 1.000000 14.000000 0.000002
v 0.965912 14.000000 0.258821
v 0.866028 14.000000 0.500002
v 0.707123 14.000000 0.707109
v 0.500000 14.000000 0.866028
v 0.258820 14.000000 0.965928
v 0.000000 14.000000 1.000002
v -0.258820 14.000000 0.965928
v -0.500000 14.000000 0.866028
v -0.707092 14.000000 0.707109
v -0.865997 14.000000 0.500002
v 0.000000 19.671282 0.000003
vt -0.569210 0.035829
vt 0.063246 0.052360
vt -0.569210 0.062009
vt -0.569210 -0.016531
vt 0.063246 0.000000
vt -0.569210 0.009649
vt -0.569210 -0.068891
vt 0.063246 -0.052360
vt -0.569210 -0.042711
vt -0.569210 -0.121251
vt 0.063246 -0.104720
vt -0.569210 -0.095071
vt -0.569210 -0.173610
vt 0.063246 -0.157080
vt -0.569210 -0.147430
vt -0.569210 -0.225970
vt 0.063246 -0.209440
vt -0.569210 -0.199790
vt -0.569210 -0.278330
vt 0.063246 -0.261799
vt -0.569210 -0.252150
vt -0.569210 0.297628
vt 0.063246 0.314159
vt -0.569210 0.323808
vt -0.569210 0.245269
vt 0.063246 0.261799
vt -0.569210 0.271449
vt -0.569210 0.192909
vt 0.063246 0.209440
vt -0.569210 0.219089
vt -0.569210 0.140549
vt 0.063246 0.157080
vt -0.569210 0.166729
vt -0.569210 0.088189
vt 0.063246 0.104720
vt -0.569210 0.114369
vt -0.569210 -0.304510
vt 0.063246 -0.287979
vt 0.063246 -0.235619
vt 0.063246 -0.183260
vt 0.063246 -0.130900
vt 0.063246 -0.078540
vt 0.063246 -0.026180
vt 0.063246 0.026180
vt 0.063246 0.078540
vt 0.063246 0.130900
vt 0.063246 0.183260
vt 0.063246 0.235619
vt 0.063246 0.287979
vt 0.357738 -0.575959
vt -12.067566 -0.575959
vt 0.357738 -0.628319
vt -12.067566 -0.628319
vt 0.357738 0.628319
vt -12.067566 0.628319
vt 0.357738 0.575959
vt -12.067566 0.575959
vt 0.357738 0.523599
vt -12.067566 0.523599
vt 0.357738 0.471239
vt -12.067566 0.471239
vt 0.357738 0.418879
vt -12.067566 0.418879
vt 0.357738 0.366519
vt -12.067566 0.366519
vt 0.357738 0.314159
vt -12.067566 0.314159
vt 0.357738 0.261799
vt -12.067566 0.261799
vt 0.357738 0.209440
vt -12.067566 0.209440
vt 0.357738 0.157080
vt -12.067566 0.157080
vt 0.357738 0.104720
vt -12.067566 0.104720
vt 0.357738 0.052360
vt -12.067566 0.052360
vt 0.357738 -0.000000
vt -12.067566 0.000000
vt 0.357738 -0.052360
vt -12.067566 -0.052360
vt 0.357738 -0.104720
vt -12.067566 -0.104720
vt 0.357738 -0.157080
vt -12.067566 -0.157080
vt 0.357738 -0.209440
vt -12.067566 -0.209440
vt 0.357738 -0.261799
vt -12.067566 -0.261799
vt 0.357738 -0.314159
vt -12.067566 -0.314159
vt 0.357738 -0.366519
vt -12.067566 -0.366519
vt 0.357738 -0.418879
vt -12.067566 -0.418879
vt 0.357738 -0.471239
vt -12.067566 -0.471239
vt 0.357738 -0.523599
vt -12.067566 -0.523599
vt -0.258819 0.034074
vt 0.000000 0.000000
vt 0.000000 0.800000
vt 0.258819 0.034074
vt 0.051764 0.806815
vt 0.500000 0.133975
vt 0.100000 0.826795
vt 0.707107 0.292893
vt 0.141421 0.858579
vt 0.866025 0.500000
vt 0.173205 0.900000
vt 0.965926 0.741181
vt 0.193185 0.948236
vt 0.200000 1.000000
vt 1.000000 1.000000
vt 0.193185 1.051764
vt 0.965926 1.258819
vt 0.173205 1.100000
vt 0.866025 1.500000
vt 0.141421 1.141421
vt 0.707107 1.707107
vt 0.100000 1.173205
vt 0.500000 1.866025
vt 0.051764 1.193185
vt 0.258819 1.965926
vt 0.000000 1.200000
vt 0.000000 2.000000
vt -0.258819 1.965926
vt -0.051764 1.193185
vt -0.500000 1.866025
vt -0.100000 1.173205
vt -0.707107 1.707107
vt -0.141421 1.141421
vt -0.866025 1.500000
vt -0.173205 1.100000
vt -0.965926 1.258819
vt -0.193185 1.051764
vt -1.000000 1.000000
vt -0.200000 1.000000
vt -0.193185 0.948236
vt -0.965926 0.741181
vt -0.173205 0.900000
vt -0.866025 0.500000
vt -0.141421 0.858579
vt -0.707107 0.292893
vt -0.100000 0.826795
vt -0.500000 0.133975
vt -0.051764 0.806815
vt 0.575877 -1.129852
vt -5.182893 -1.178097
vt 0.575877 -1.260751
vt 0.575877 -0.868052
vt -5.182893 -0.916298
vt 0.575877 -0.998952
vt 0.575877 -0.606253
vt -5.182893 -0.654498
vt 0.575877 -0.737152
vt 0.575877 -0.344453
vt -5.182893 -0.392699
vt 0.575877 -0.475353
vt 0.575877 -0.082654
vt -5.182893 -0.130900
vt 0.575877 -0.213554
vt 0.575877 0.179145
vt -5.182893 0.130900
vt 0.575877 0.048246
vt 0.575877 0.440945
vt -5.182893 0.392699
vt 0.575877 0.310045
vt 0.575877 0.702744
vt -5.182893 0.654498
vt 0.575877 0.571844
vt 0.575877 0.964544
vt -5.182893 0.916298
vt 0.575877 0.833644
vt 0.575877 1.226343
vt -5.182893 1.178097
vt 0.575877 1.095443
vt 0.575877 1.488142
vt -5.182893 1.439897
vt 0.575877 1.357243
vt 0.575877 -1.391651
vt -5.182893 -1.439897
vt 0.575877 -1.522551
vt -5.182893 -1.570796
vt 0.575877 -1.653450
vt -5.182893 0.523599
vt -5.182893 -0.523599
vt -5.182893 1.308997
vt -5.182893 1.047198
vt -5.182893 0.785398
vt -5.182893 0.261799
vt -5.182893 0.000000
vt -5.182893 -0.261799
vt -5.182893 -0.785398
vt -5.182893 -1.047198
vt -5.182893 -1.308997
vn 0.9164 -0.3163 0.2454
vn 0.9443 -0.3163 0.0913
vn 0.9487 -0.3163 -0.0001
vn 0.6711 -0.3162 0.6706
vn 0.7723 -0.3162 0.5510
vn 0.8218 -0.3162 0.4740
vn 0.2455 -0.3160 0.9164
vn 0.3930 -0.3160 0.8635
vn 0.4743 -0.3160 0.8217
vn -0.2456 -0.3162 0.9164
vn -0.0914 -0.3162 0.9443
vn -0.0000 -0.3162 0.9487
vn -0.6709 -0.3163 0.6707
vn -0.5514 -0.3163 0.7719
vn -0.4745 -0.3163 0.8215
vn -0.9164 -0.3163 0.2454
vn -0.8635 -0.3163 0.3929
vn -0.8216 -0.3163 0.4743
vn -0.9164 -0.3162 -0.2454
vn -0.9443 -0.3162 -0.0913
vn -0.9487 -0.3162 0.0001
vn -0.6708 -0.3160 -0.6709
vn -0.7721 -0.3161 -0.5514
vn -0.8216 -0.3160 -0.4744
vn -0.2455 -0.3163 -0.9163
vn -0.3929 -0.3163 -0.8635
vn -0.4743 -0.3163 -0.8216
vn 0.2456 -0.3162 -0.9164
vn 0.0914 -0.3162 -0.9443
vn 0.0000 -0.3162 -0.9487
vn 0.6707 -0.3163 -0.6709
vn 0.5512 -0.3163 -0.7721
vn 0.4742 -0.3163 -0.8216
vn 0.9163 -0.3162 -0.2459
vn 0.8633 -0.3162 -0.3934
vn 0.8214 -0.3162 -0.4747
vn -0.8216 -0.3163 -0.4743
vn -0.8885 -0.3163 -0.3326
vn -0.9164 -0.3163 -0.2454
vn -0.9487 -0.3162 -0.0001
vn -0.9358 -0.3162 0.1560
vn -0.9164 -0.3162 0.2454
vn -0.8216 -0.3162 0.4744
vn -0.7323 -0.3162 0.6031
vn -0.6708 -0.3162 0.6709
vn -0.4743 -0.3163 0.8216
vn -0.3326 -0.3163 0.8884
vn -0.2455 -0.3163 0.9163
vn 0.1561 -0.3162 0.9357
vn 0.2456 -0.3162 0.9164
vn 0.4742 -0.3163 0.8216
vn 0.6030 -0.3163 0.7324
vn 0.6707 -0.3163 0.6709
vn 0.8214 -0.3162 0.4747
vn 0.8883 -0.3162 0.3330
vn 0.9162 -0.3162 0.2459
vn 0.9487 -0.3163 0.0001
vn 0.9357 -0.3163 -0.1560
vn 0.9164 -0.3163 -0.2454
vn 0.8218 -0.3162 -0.4740
vn 0.7326 -0.3162 -0.6028
vn 0.6711 -0.3162 -0.6706
vn 0.4743 -0.3160 -0.8217
vn 0.3327 -0.3160 -0.8885
vn 0.2455 -0.3160 -0.9164
vn -0.1561 -0.3162 -0.9357
vn -0.2456 -0.3162 -0.9164
vn -0.4745 -0.3163 -0.8215
vn -0.6032 -0.3163 -0.7322
vn -0.6709 -0.3163 -0.6707
vn -0.9659 0.0000 -0.2588
vn -1.0000 -0.0000 0.0000
vn -0.9659 -0.0000 0.2588
vn -0.8660 -0.0000 0.5000
vn -0.7072 -0.0000 0.7070
vn -0.5000 -0.0000 0.8660
vn -0.2588 -0.0000 0.9659
vn 0.0000 -0.0000 1.0000
vn 0.2588 -0.0000 0.9659
vn 0.4999 -0.0000 0.8661
vn 0.7073 -0.0000 0.7070
vn 0.8660 -0.0000 0.5000
vn 0.9659 -0.0000 0.2591
vn 1.0000 0.0000 -0.0000
vn 0.9659 0.0000 -0.2591
vn 0.8660 0.0000 -0.5000
vn 0.7073 0.0000 -0.7070
vn 0.4999 0.0000 -0.8661
vn 0.2588 0.0000 -0.9659
vn -0.0000 0.0000 -1.0000
vn -0.2588 0.0000 -0.9659
vn -0.5000 0.0000 -0.8660
vn -0.7072 0.0000 -0.7070
vn -0.8660 0.0000 -0.5000
vn 0.0000 -1.0000 0.0000
vn -0.9512 0.1736 0.2549
vn -0.9714 0.1736 0.1621
vn -0.9848 0.1736 0.0000
vn -0.6964 0.1736 0.6964
vn -0.7602 0.1736 0.6260
vn -0.8529 0.1736 0.4924
vn -0.2549 0.1736 0.9512
vn -0.3454 0.1736 0.9223
vn -0.4924 0.1736 0.8529
vn 0.2549 0.1737 0.9512
vn 0.1621 0.1737 0.9714
vn -0.0000 0.1737 0.9848
vn 0.6963 0.1737 0.6964
vn 0.6260 0.1736 0.7602
vn 0.4924 0.1736 0.8529
vn 0.9513 0.1736 0.2548
vn 0.9223 0.1736 0.3453
vn 0.8529 0.1736 0.4923
vn 0.9512 0.1736 -0.2549
vn 0.9714 0.1736 -0.1621
vn 0.9848 0.1736 -0.0000
vn 0.6964 0.1737 -0.6963
vn 0.7602 0.1737 -0.6260
vn 0.8529 0.1737 -0.4924
vn 0.2549 0.1736 -0.9512
vn 0.3454 0.1736 -0.9223
vn 0.4924 0.1736 -0.8529
vn -0.2549 0.1737 -0.9512
vn -0.1621 0.1737 -0.9714
vn 0.0000 0.1737 -0.9848
vn -0.6964 0.1736 -0.6964
vn -0.6261 0.1736 -0.7602
vn -0.4924 0.1736 -0.8529
vn -0.9512 0.1736 -0.2549
vn -0.9223 0.1736 -0.3454
vn -0.8529 0.1736 -0.4924
vn -0.8015 0.1736 -0.5723
vn 0.8529 0.1736 -0.4923
vn 0.8964 0.1737 -0.4079
vn 0.9513 0.1736 -0.2548
vn -0.0949 0.1737 0.9802
vn -0.2549 0.1737 0.9512
vn -0.4080 0.1736 -0.8963
vn -0.2549 0.1736 -0.9512
vn 0.0949 0.1737 -0.9802
vn 0.2549 0.1737 -0.9512
vn 0.5722 0.1736 -0.8015
vn 0.6963 0.1737 -0.6964
vn 0.9802 0.1737 0.0949
vn 0.9512 0.1736 0.2549
vn 0.8529 0.1737 0.4924
vn 0.8015 0.1737 0.5723
vn 0.6964 0.1737 0.6963
vn 0.4080 0.1736 0.8963
vn 0.2549 0.1736 0.9512
vn -0.5723 0.1736 0.8015
vn -0.8963 0.1736 0.4080
vn -0.9802 0.1737 -0.0949
g Body11.001_Body11.002_Opaque(255,0,0).004
usemtl Opaque(255,0,0).004
s 1
f 19/55/16 20/56/17 21/57/18
f 22/58/19 20/59/20 23/60/21
f 24/61/22 20/62/23 25/63/24
f 26/64/25 20/65/26 27/66/27
f 28/67/28 20/68/29 29/69/30
f 30/70/31 20/71/32 31/72/33
f 32/73/34 20/74/35 33/75/36
f 34/76/37 20/77/38 35/78/39
f 36/79/40 20/80/41 37/81/42
f 38/82/43 20/83/44 39/84/45
f 40/85/46 20/86/47 41/87/48
f 42/88/49 20/89/50 43/90/51
f 35/91/52 20/92/53 32/73/54
f 33/75/55 20/93/56 30/70/57
f 31/72/58 20/94/59 28/67/60
f 29/69/61 20/95/62 26/64/63
f 27/66/27 20/96/64 24/61/65
f 25/63/66 20/97/67 22/58/68
f 23/60/69 20/98/70 19/55/71
f 21/57/72 20/99/73 42/88/74
f 43/90/75 20/100/76 40/85/77
f 41/87/78 20/101/79 38/82/80
f 39/84/45 20/102/81 36/79/82
f 37/81/83 20/103/84 34/76/85
f 44/104/86 32/105/86 45/106/87
f 45/106/87 32/105/86 33/107/87
f 45/108/87 33/109/87 46/110/88
f 46/110/88 33/109/87 30/111/88
f 46/110/88 30/111/88 47/112/89
f 47/112/89 30/111/88 31/113/89
f 47/112/89 31/113/89 48/114/90
f 48/114/90 31/113/89 28/115/90
f 48/114/90 28/115/90 49/116/91
f 49/116/91 28/115/90 29/117/91
f 49/116/91 29/117/91 50/118/92
f 50/118/92 29/117/91 26/119/92
f 50/118/92 26/119/92 51/120/93
f 51/120/93 26/119/92 27/121/93
f 51/120/93 27/121/93 52/122/94
f 52/122/94 27/121/93 24/123/94
f 52/122/94 24/123/94 53/124/95
f 53/124/95 24/123/94 25/125/95
f 53/124/95 25/125/95 54/126/96
f 54/126/96 25/125/95 22/127/96
f 54/126/96 22/127/96 55/128/97
f 55/128/97 22/127/96 23/129/97
f 55/128/97 23/129/97 56/130/98
f 56/130/98 23/129/97 19/131/98
f 56/130/98 19/131/98 57/132/99
f 57/132/99 19/131/98 21/133/99
f 57/132/99 21/133/99 58/134/100
f 58/134/100 21/133/99 42/135/100
f 58/134/100 42/135/100 59/136/101
f 59/136/101 42/135/100 43/137/101
f 59/136/101 43/137/101 60/138/102
f 60/138/102 43/137/101 40/139/102
f 60/138/102 40/139/102 61/140/103
f 61/140/103 40/139/102 41/141/103
f 61/140/103 41/141/103 62/142/104
f 62/142/104 41/141/103 38/143/104
f 62/142/104 38/143/104 63/144/105
f 63/144/105 38/143/104 39/145/105
f 63/144/105 39/145/105 64/146/106
f 64/146/106 39/145/105 36/147/106
f 64/146/106 36/147/106 65/148/107
f 65/148/107 36/147/106 37/149/107
f 65/148/107 37/149/107 66/150/108
f 66/150/108 37/149/107 34/151/108
f 66/150/108 34/151/108 67/152/109
f 67/152/109 34/151/108 35/153/109
f 67/152/109 35/153/109 44/104/86
f 44/104/86 35/153/109 32/105/86
f 68/154/110 69/155/110 45/156/110
f 45/156/110 69/155/110 70/157/110
f 45/156/110 70/157/110 44/158/110
f 44/158/110 70/157/110 71/159/110
f 44/158/110 71/159/110 67/160/110
f 67/160/110 71/159/110 72/161/110
f 67/160/110 72/161/110 66/162/110
f 66/162/110 72/161/110 73/163/110
f 66/162/110 73/163/110 65/164/110
f 65/164/110 73/163/110 74/165/110
f 65/164/110 74/165/110 64/166/110
f 64/166/110 74/165/110 63/167/110
f 63/167/110 74/165/110 75/168/110
f 63/167/110 75/168/110 62/169/110
f 62/169/110 75/168/110 76/170/110
f 62/169/110 76/170/110 61/171/110
f 61/171/110 76/170/110 77/172/110
f 61/171/110 77/172/110 60/173/110
f 60/173/110 77/172/110 78/174/110
f 60/173/110 78/174/110 59/175/110
f 59/175/110 78/174/110 79/176/110
f 59/175/110 79/176/110 58/177/110
f 58/177/110 79/176/110 80/178/110
f 58/177/110 80/178/110 57/179/110
f 57/179/110 80/178/110 81/180/110
f 57/179/110 81/180/110 82/181/110
f 57/179/110 82/181/110 56/182/110
f 56/182/110 82/181/110 83/183/110
f 56/182/110 83/183/110 55/184/110
f 55/184/110 83/183/110 84/185/110
f 55/184/110 84/185/110 54/186/110
f 54/186/110 84/185/110 85/187/110
f 54/186/110 85/187/110 53/188/110
f 53/188/110 85/187/110 86/189/110
f 53/188/110 86/189/110 52/190/110
f 52/190/110 86/189/110 87/191/110
f 52/190/110 87/191/110 51/192/110
f 51/192/110 87/191/110 50/193/110
f 50/193/110 87/191/110 88/194/110
f 50/193/110 88/194/110 49/195/110
f 49/195/110 88/194/110 89/196/110
f 49/195/110 89/196/110 48/197/110
f 48/197/110 89/196/110 90/198/110
f 48/197/110 90/198/110 47/199/110
f 47/199/110 90/198/110 91/200/110
f 47/199/110 91/200/110 46/201/110
f 46/201/110 91/200/110 68/154/110
f 46/201/110 68/154/110 45/156/110
f 68/202/111 92/203/112 69/204/113
f 90/205/114 92/206/115 91/207/116
f 88/208/117 92/209/118 89/210/119
f 86/211/120 92/212/121 87/213/122
f 84/214/123 92/215/124 85/216/125
f 82/217/126 92/218/127 83/219/128
f 80/220/129 92/221/130 81/222/131
f 78/223/132 92/224/133 79/225/134
f 76/226/135 92/227/136 77/228/137
f 74/229/138 92/230/139 75/231/140
f 72/232/141 92/233/142 73/234/143
f 70/235/144 92/236/145 71/237/146
f 71/237/146 92/238/147 72/239/141
f 79/225/148 92/240/149 80/220/150
f 87/213/122 92/241/151 88/208/152
f 73/234/143 92/242/153 74/229/154
f 75/231/140 92/243/155 76/226/156
f 77/228/137 92/244/157 78/223/158
f 81/222/131 92/245/159 82/217/160
f 83/219/161 92/246/162 84/214/163
f 85/216/125 92/247/164 86/211/165
f 89/210/119 92/248/166 90/205/114
f 91/207/116 92/249/167 68/202/111
f 69/204/113 92/250/168 70/235/144
